<?xml version="1.0" encoding="UTF-8"?>
<!DOCTYPE svg PUBLIC "-//W3C//DTD SVG 1.1//EN" "http://www.w3.org/Graphics/SVG/1.1/DTD/svg11.dtd">
<!-- Creator: CorelDRAW -->
<svg xmlns="http://www.w3.org/2000/svg" xml:space="preserve" width="512px" height="512px" version="1.1" style="shape-rendering:geometricPrecision; text-rendering:geometricPrecision; image-rendering:optimizeQuality; fill-rule:evenodd; clip-rule:evenodd"
viewBox="0 0 512 512"
 xmlns:xlink="http://www.w3.org/1999/xlink">
 <defs>
  <style type="text/css">
   <![CDATA[
    .fil0 {fill:black}
   ]]>
  </style>
 </defs>
 <g id="Layer_x0020_1">
  <metadata id="CorelCorpID_0Corel-Layer"/>
  <g id="_484799120">
   <g>
    <path class="fil0" d="M75 464c-4,0 -7,-3 -7,-7l0 -411c0,-26 20,-46 45,-46l324 0c4,0 7,3 7,7l0 401c0,4 -3,7 -7,7 -4,0 -7,-3 -7,-7l0 -394 -317 0c-17,0 -31,14 -31,32l0 411c0,4 -3,7 -7,7z"/>
   </g>
   <g>
    <path class="fil0" d="M437 512l-314 0c-30,0 -55,-25 -55,-55 0,-15 6,-29 16,-40 10,-10 24,-16 39,-16l314 0c4,0 7,3 7,7l0 97c0,4 -3,7 -7,7zm-314 -97c-23,0 -41,18 -41,42 0,23 18,41 41,41l307 0 0 -83 -307 0z"/>
   </g>
   <g>
    <path class="fil0" d="M128 415c-4,0 -7,-3 -7,-7l0 -401c0,-4 3,-7 7,-7 4,0 7,3 7,7l0 401c0,4 -3,7 -7,7z"/>
   </g>
   <g>
    <path class="fil0" d="M409 236l-253 0c-4,0 -7,-3 -7,-7 0,-4 3,-7 7,-7l253 0c4,0 7,3 7,7 0,4 -3,7 -7,7z"/>
   </g>
   <g>
    <path class="fil0" d="M409 290l-253 0c-4,0 -7,-3 -7,-7 0,-4 3,-7 7,-7l253 0c4,0 7,3 7,7 0,4 -3,7 -7,7z"/>
   </g>
   <g>
    <path class="fil0" d="M363 345l-161 0c-4,0 -7,-3 -7,-7 0,-4 3,-7 7,-7l161 0c4,0 7,3 7,7 0,4 -3,7 -7,7z"/>
   </g>
   <g>
    <path class="fil0" d="M437 464l-315 0c-4,0 -7,-3 -7,-7 0,-4 3,-7 7,-7l315 0c4,0 7,3 7,7 0,4 -3,7 -7,7z"/>
   </g>
   <g>
    <path class="fil0" d="M391 137c-2,0 -3,-1 -5,-2l-39 -33 -40 33c-2,2 -5,2 -7,1 -3,-1 -4,-3 -4,-6l0 -123c0,-4 3,-7 7,-7 4,0 7,3 7,7l0 108 33 -27c2,-2 6,-2 9,0l32 27 0 -108c0,-4 3,-7 7,-7 4,0 7,3 7,7l0 123c0,3 -2,5 -4,6 -1,1 -2,1 -3,1z"/>
   </g>
   <g>
    <path class="fil0" d="M268 63l-104 0c-4,0 -7,-3 -7,-7 0,-4 3,-7 7,-7l104 0c4,0 7,3 7,7 0,4 -3,7 -7,7z"/>
   </g>
   <g>
    <path class="fil0" d="M268 108l-104 0c-4,0 -7,-3 -7,-7 0,-4 3,-7 7,-7l104 0c4,0 7,3 7,7 0,4 -3,7 -7,7z"/>
   </g>
  </g>
 </g>
</svg>
