<svg viewBox="0 0 64 64"  xmlns="http://www.w3.org/2000/svg"><title/><g data-name="Half moon" id="Half_moon" ><path  d="M61.4326,33.3882a.9987.9987,0,0,0-1.16.1909,19.497,19.497,0,0,1-13.9512,5.8491h-.0234A19.5995,19.5995,0,0,1,35.0049,3.81a1,1,0,0,0-.4824-1.813,1.2507,1.2507,0,0,0-.4141-.0142A28.1186,28.1186,0,0,0,10.9712,46.0935a10.1276,10.1276,0,0,0-3.4038,6.0872c-.06.3877-.0986.749-.1172,1.0966a8.2092,8.2092,0,0,0-5.4346,7.7413,1,1,0,0,0,1,.999h.001l29-.0327a1,1,0,0,0,.999-1.0015,8.207,8.207,0,0,0-.4869-2.73c.54.0311,1.0771.0488,1.608.0488h.0352a28.3267,28.3267,0,0,0,27.8008-23.87A.999.999,0,0,0,61.4326,33.3882ZM4.0947,60.0166a6.2108,6.2108,0,0,1,4.6172-5.0352,1,1,0,0,0,.7549-.97.7283.7283,0,0,0-.03-.25,8.4488,8.4488,0,0,1,.1065-1.2729,8.0975,8.0975,0,0,1,3.36-5.3633,7.965,7.965,0,0,1,4.5947-1.4541h.01a8.0049,8.0049,0,0,1,7.13,4.3359,7.5061,7.5061,0,0,1,.8291,2.4546,9.4282,9.4282,0,0,1,.1143,1.2036,1.6892,1.6892,0,0,0-.0342.3252,1,1,0,0,0,.7558.97A6.1894,6.1894,0,0,1,30.04,57.6479a6.0983,6.0983,0,0,1,.8946,2.3379ZM34.17,56.3022h-.0332a26.4958,26.4958,0,0,1-2.6875-.1391c-.099-.137-.2183-.2548-.3251-.3847-.1136-.1381-.2233-.2784-.3452-.4083-.1808-.1925-.3764-.3669-.5744-.54-.1261-.1106-.2457-.2276-.3784-.33a8.1443,8.1443,0,0,0-.7175-.48c-.1216-.0749-.235-.1609-.3606-.2295a8.264,8.264,0,0,0-1.1855-.5354c-.02-.3423-.06-.7061-.12-1.103a9.4535,9.4535,0,0,0-1.044-3.0914,9.9837,9.9837,0,0,0-8.8906-5.3891h-.0117a10.1059,10.1059,0,0,0-1.165.0754c-.0672.0079-.1345.0141-.2014.0233a9.9663,9.9663,0,0,0-1.0927.2133c-.0664.0168-.1316.036-.1975.0542a9.8777,9.8777,0,0,0-1.09.3632l-.0224.01a9.9931,9.9931,0,0,0-1.0367.5012c-.0319.0176-.0663.0295-.0981.0475A26.1549,26.1549,0,0,1,31.4775,4.1162a21.6,21.6,0,0,0,14.82,37.312h.0253a21.45,21.45,0,0,0,13.06-4.4057A26.3516,26.3516,0,0,1,34.17,56.3022Z"/></g></svg>